<?xml version="1.0" encoding="UTF-8"?>
<!DOCTYPE svg PUBLIC "-//W3C//DTD SVG 1.1//EN" "http://www.w3.org/Graphics/SVG/1.1/DTD/svg11.dtd">
<svg version="1.1" xmlns="http://www.w3.org/2000/svg" xmlns:xlink="http://www.w3.org/1999/xlink" x="0" y="0" width="120" height="120" viewBox="0, 0, 120, 120">
  <g id="Background">
    <rect x="0" y="0" width="120" height="120" fill="#000000" fill-opacity="0"/>
  </g>
  <g id="Image">
    <path d="M70.103,100.011 C47.723,112.775 3.244,131.502 3.233,110.387 L3.201,49.397 C4.088,49.396 4.807,48.677 4.806,47.79 C4.806,46.903 4.087,46.185 3.2,46.185 L3.188,23.711 C4.447,23.71 5.466,22.689 5.466,21.431 C5.328,20.515 4.887,19.627 4.019,19.232 C3.233,18.874 2.83,18.164 2.705,17.335 C2.71,16.511 3.025,15.989 3.693,15.573 L16.938,7.926 L30.183,0.279 C30.878,-0.091 31.487,-0.103 32.203,0.304 C32.858,0.827 33.272,1.532 33.189,2.391 C33.097,3.34 33.645,4.166 34.37,4.743 C35.459,5.373 36.853,5 37.483,3.911 L56.941,15.158 C56.497,15.926 56.759,16.908 57.527,17.352 C58.295,17.796 59.277,17.533 59.721,16.765 L112.524,47.288 C130.804,57.855 92.348,87.011 70.103,100.011" fill="#000000"/>
    <path d="M67.654,64.89 L92.289,85.059 C85.252,90.522 77.805,95.439 70.148,99.985 C62.356,104.358 54.343,108.383 46.055,111.736 L41.34,80.116 C50.784,75.388 46.348,77.717 54.672,73.179 C62.854,68.181 58.514,70.924 67.654,64.89 z" fill="#FFFFFF"/>
    <path d="M30.171,0.286 C30.866,-0.084 31.475,-0.096 32.191,0.311 C32.846,0.833 33.26,1.538 33.177,2.397 C33.085,3.347 33.634,4.173 34.358,4.75 C35.447,5.38 36.841,5.007 37.471,3.917 L56.929,15.165 C56.485,15.933 56.748,16.915 57.515,17.359 C58.283,17.803 59.265,17.54 59.709,16.772 L112.512,47.295 C125.218,55.191 109.143,70.472 102.746,76.308 L50.068,33.369 C44.326,28.696 38.632,28.941 31.973,32.786 C25.218,36.686 22.159,41.495 23.24,48.859 L33.262,116.432 C25.031,119.196 3.727,125.195 3.221,110.394 L3.19,49.404 C4.076,49.403 4.795,48.684 4.795,47.797 C4.794,46.91 4.075,46.192 3.188,46.192 L3.176,23.718 C4.435,23.717 5.454,22.696 5.454,21.438 C5.316,20.522 4.875,19.634 4.007,19.239 C3.221,18.881 2.818,18.17 2.693,17.342 C2.698,16.518 3.013,15.996 3.681,15.58 L30.171,0.286 z" fill="#FFFFFF"/>
    <text transform="matrix(0.866, 0.5, -0.5, 0.866, 80.113, 44.557)">
      <tspan x="-21.674" y="1.886" font-family="Menlo-Bold" font-size="12" fill="#000000">AP0110</tspan>
    </text>
  </g>
</svg>
