<?xml version="1.0" encoding="UTF-8"?>
<!DOCTYPE svg PUBLIC "-//W3C//DTD SVG 1.1//EN" "http://www.w3.org/Graphics/SVG/1.1/DTD/svg11.dtd">
<svg version="1.1" xmlns="http://www.w3.org/2000/svg" xmlns:xlink="http://www.w3.org/1999/xlink" x="0" y="0" width="120" height="120" viewBox="0, 0, 120, 120">
  <g id="Layer_2" transform="translate(0, 0)">
    <path d="M70.059,100.049 C47.678,112.813 3.2,131.539 3.189,110.425 L3.157,49.435 C4.044,49.434 4.763,48.715 4.762,47.828 C4.762,46.941 4.042,46.222 3.155,46.223 L3.144,23.749 C4.402,23.748 5.422,22.727 5.421,21.468 C5.284,20.553 4.843,19.665 3.974,19.27 C3.189,18.912 2.785,18.201 2.661,17.373 C2.666,16.549 2.981,16.027 3.648,15.611 L16.893,7.963 L30.139,0.316 C30.833,-0.054 31.442,-0.065 32.159,0.342 C32.814,0.864 33.228,1.569 33.144,2.428 C33.053,3.378 33.601,4.204 34.325,4.781 C35.415,5.411 36.809,5.038 37.439,3.948 L56.896,15.196 C56.452,15.963 56.715,16.946 57.483,17.39 C58.251,17.833 59.233,17.571 59.677,16.803 L112.48,47.326 C130.76,57.892 92.303,87.049 70.059,100.049" fill="#FFFFFF"/>
    <path d="M37.649,42.827 C39.195,41.934 40.648,41.997 42.121,43.208 L68.156,64.53 C63.752,67.621 59.191,70.471 54.567,73.216 C50.049,75.857 45.332,78.122 40.648,80.444 L35.647,46.946 C35.431,45.009 36.103,43.719 37.649,42.827 z" fill="#000000"/>
    <path d="M31.94,32.817 L31.94,32.817 C38.597,28.973 44.289,28.73 50.031,33.404 L96.102,70.97 L96.108,70.965 L96.158,71.016 L96.364,71.183 L96.341,71.202 C98.892,73.666 99.804,77.772 97.37,80.653 L97.487,80.855 C91.246,85.991 94.846,83.154 86.575,89.224 L86.453,89.013 C89.155,85.997 87.791,82.032 85.289,79.479 L42.89,44.754 C41.44,43.562 40.01,43.5 38.488,44.379 C36.967,45.257 36.305,46.527 36.518,48.433 L44.702,103.261 C45.469,106.477 48.29,109.827 51.989,109.133 C42.903,113.125 47.142,111.424 39.321,114.356 C35.503,114.961 32.928,111.536 32.034,108.333 L32.039,108.331 L23.213,48.887 C22.131,41.523 25.188,36.715 31.94,32.817 z" fill="#FF4F00"/>
    <text transform="matrix(0.866, 0.5, -0.5, 0.866, 80.069, 44.594)">
      <tspan x="-21.674" y="1.886" font-family="Menlo-Bold" font-size="12" fill="#000000">AP0110</tspan>
    </text>
    <path d="M68.044,65.467 C63.64,68.558 59.079,71.407 54.455,74.153 C49.937,76.793 45.22,79.058 40.536,81.381" fill-opacity="0" stroke="#ED4D05" stroke-width="12" stroke-linecap="square"/>
    <path d="M3.946,114.268 C15.426,116.747 29.935,111.402 40.424,107.086 C49.552,103.33 58.398,99.04 67.001,94.213 C79.762,86.528 92.239,78.057 103.017,67.711 C108.148,62.785 113.545,57.184 115.705,50.246 C121.778,57.748 109.319,70.079 104.502,74.703 C94.211,84.582 82.287,92.788 70.048,100.055 C67.591,101.434 65.967,102.364 63.226,103.764 C60.688,105.061 58.153,106.365 55.567,107.562 C43.837,112.989 29.507,119.471 16.249,119.943 C11.661,120.106 5.593,119.353 3.946,114.268 z" fill="#000000" fill-opacity="0.25"/>
    <g>
      <path d="M49.196,3.546 L56.472,16.147" fill-opacity="0" stroke="#FFFFFF" stroke-width="2"/>
      <path d="M50.192,5.636 C48.757,6.465 46.923,5.973 46.094,4.538 C45.266,3.103 45.757,1.268 47.192,0.44 C48.627,-0.388 50.462,0.103 51.29,1.538 C52.119,2.973 51.627,4.808 50.192,5.636 z" fill="#0CFF00"/>
    </g>
  </g>
</svg>
